<svg xmlns="http://www.w3.org/2000/svg" width="128" height="128" viewBox="0 0 128 128" role="img" aria-label="cherry tomato">
  <defs>
    <radialGradient id="bg" cx="30%" cy="22%" r="78%">
      <stop offset="0" stop-color="#fffefa"/>
      <stop offset=".42" stop-color="#e8f4d8"/>
      <stop offset="1" stop-color="#f2ece1"/>
    </radialGradient>
    <linearGradient id="main" x1="25%" y1="15%" x2="78%" y2="88%">
      <stop offset="0" stop-color="#ef3b2d"/>
      <stop offset="1" stop-color="#d9281f"/>
    </linearGradient>
    <filter id="shadow" x="-30%" y="-30%" width="170%" height="180%">
      <feDropShadow dx="0" dy="9" stdDeviation="7" flood-color="#15320b" flood-opacity=".18"/>
    </filter>
  </defs>
  <rect x="10" y="10" width="108" height="108" rx="32" fill="url(#bg)"/>
  <circle cx="41" cy="37" r="18" fill="#fff" opacity=".72"/>
  <g filter="url(#shadow)">
    <path d="M0-18C15-14 22-2 15 11 3 12-12 5-15-9-11-16-5-18 0-18Z" transform="translate(63 42) rotate(0) scale(0.45)" fill="#4c9138"/><path d="M62 29C66 39 66 48 62 54" fill="none" stroke="#e8f8d1" stroke-width="2" stroke-linecap="round" opacity=".74"/>
    <circle cx="51" cy="66" r="17" fill="#ef3b2d"/><circle cx="71" cy="61" r="17" fill="#d9281f"/><circle cx="75" cy="81" r="16" fill="#e63b2b"/><circle cx="54" cy="84" r="15" fill="#f0523f"/>
    <circle cx="45" cy="59" r="4" fill="#fff" opacity=".52"/><circle cx="69" cy="55" r="4" fill="#fff" opacity=".45"/></g>
</svg>
