<svg xmlns="http://www.w3.org/2000/svg" width="128" height="128" viewBox="0 0 128 128" role="img" aria-label="corn">
  <defs>
    <radialGradient id="bg" cx="30%" cy="22%" r="78%">
      <stop offset="0" stop-color="#fffefa"/>
      <stop offset=".42" stop-color="#e8f4d8"/>
      <stop offset="1" stop-color="#f2ece1"/>
    </radialGradient>
    <linearGradient id="main" x1="25%" y1="15%" x2="78%" y2="88%">
      <stop offset="0" stop-color="#f4c74f"/>
      <stop offset="1" stop-color="#d89d1e"/>
    </linearGradient>
    <filter id="shadow" x="-30%" y="-30%" width="170%" height="180%">
      <feDropShadow dx="0" dy="9" stdDeviation="7" flood-color="#15320b" flood-opacity=".18"/>
    </filter>
  </defs>
  <rect x="10" y="10" width="108" height="108" rx="32" fill="url(#bg)"/>
  <circle cx="41" cy="37" r="18" fill="#fff" opacity=".72"/>
  <g filter="url(#shadow)">
    <path d="M0-18C15-14 22-2 15 11 3 12-12 5-15-9-11-16-5-18 0-18Z" transform="translate(49 82) rotate(-38) scale(0.78)" fill="#4b8e37"/><path d="M48 69C52 79 52 88 48 94" fill="none" stroke="#e8f8d1" stroke-width="2" stroke-linecap="round" opacity=".74"/><path d="M0-18C15-14 22-2 15 11 3 12-12 5-15-9-11-16-5-18 0-18Z" transform="translate(85 82) rotate(38) scale(0.78)" fill="#4b8e37"/><path d="M84 69C88 79 88 88 84 94" fill="none" stroke="#e8f8d1" stroke-width="2" stroke-linecap="round" opacity=".74"/>
    <ellipse cx="68" cy="67" rx="22" ry="37" fill="#d99b24"/><ellipse cx="58" cy="45" rx="4" ry="5" fill="#f1b93e"/><ellipse cx="66" cy="45" rx="4" ry="5" fill="#f1b93e"/><ellipse cx="74" cy="45" rx="4" ry="5" fill="#f1b93e"/><ellipse cx="60" cy="53" rx="4" ry="5" fill="#ffd765"/><ellipse cx="68" cy="53" rx="4" ry="5" fill="#ffd765"/><ellipse cx="76" cy="53" rx="4" ry="5" fill="#ffd765"/><ellipse cx="58" cy="61" rx="4" ry="5" fill="#f1b93e"/><ellipse cx="66" cy="61" rx="4" ry="5" fill="#f1b93e"/><ellipse cx="74" cy="61" rx="4" ry="5" fill="#f1b93e"/><ellipse cx="60" cy="69" rx="4" ry="5" fill="#ffd765"/><ellipse cx="68" cy="69" rx="4" ry="5" fill="#ffd765"/><ellipse cx="76" cy="69" rx="4" ry="5" fill="#ffd765"/><ellipse cx="58" cy="77" rx="4" ry="5" fill="#f1b93e"/><ellipse cx="66" cy="77" rx="4" ry="5" fill="#f1b93e"/><ellipse cx="74" cy="77" rx="4" ry="5" fill="#f1b93e"/><ellipse cx="60" cy="85" rx="4" ry="5" fill="#ffd765"/><ellipse cx="68" cy="85" rx="4" ry="5" fill="#ffd765"/><ellipse cx="76" cy="85" rx="4" ry="5" fill="#ffd765"/>
    <path d="M48 91c19 9 39 6 52-4" stroke="#5f9d3e" stroke-width="5" stroke-linecap="round" fill="none" opacity=".65"/></g>
</svg>
