<svg xmlns="http://www.w3.org/2000/svg" width="128" height="128" viewBox="0 0 128 128" role="img" aria-label="cucumber">
  <defs>
    <radialGradient id="bg" cx="30%" cy="22%" r="78%">
      <stop offset="0" stop-color="#fffefa"/>
      <stop offset=".42" stop-color="#e8f4d8"/>
      <stop offset="1" stop-color="#f2ece1"/>
    </radialGradient>
    <linearGradient id="main" x1="25%" y1="15%" x2="78%" y2="88%">
      <stop offset="0" stop-color="#3c9b3f"/>
      <stop offset="1" stop-color="#216f28"/>
    </linearGradient>
    <filter id="shadow" x="-30%" y="-30%" width="170%" height="180%">
      <feDropShadow dx="0" dy="9" stdDeviation="7" flood-color="#15320b" flood-opacity=".18"/>
    </filter>
  </defs>
  <rect x="10" y="10" width="108" height="108" rx="32" fill="url(#bg)"/>
  <circle cx="41" cy="37" r="18" fill="#fff" opacity=".72"/>
  <g filter="url(#shadow)">
    <g transform="translate(64 66) rotate(-17)">
      <rect x="-42" y="-15" width="84" height="30" rx="15" fill="url(#main)"/>
      <path d="M-34 -4C-14 -14 18 -13 35 -3" fill="none" stroke="#d9f6bd" stroke-width="4.2" stroke-linecap="round" opacity=".88"/>
      <path d="M-35 8C-15 16 17 15 34 6" fill="none" stroke="#1f6a27" stroke-width="2.4" stroke-linecap="round" opacity=".35"/>
      <circle cx="-23" cy="-5" r="2.5" fill="#daf4b2"/><circle cx="-4" cy="4" r="2.7" fill="#daf4b2"/><circle cx="17" cy="-6" r="2.4" fill="#daf4b2"/><circle cx="30" cy="5" r="2.2" fill="#daf4b2"/>
      <ellipse cx="-43" cy="0" rx="5" ry="10" fill="#216f28" opacity=".82"/>
    </g></g>
</svg>
