<svg xmlns="http://www.w3.org/2000/svg" width="128" height="128" viewBox="0 0 128 128" role="img" aria-label="dill">
  <defs>
    <radialGradient id="bg" cx="30%" cy="22%" r="78%">
      <stop offset="0" stop-color="#fffefa"/>
      <stop offset=".42" stop-color="#e8f4d8"/>
      <stop offset="1" stop-color="#f2ece1"/>
    </radialGradient>
    <linearGradient id="main" x1="25%" y1="15%" x2="78%" y2="88%">
      <stop offset="0" stop-color="#5baf48"/>
      <stop offset="1" stop-color="#2d7a2f"/>
    </linearGradient>
    <filter id="shadow" x="-30%" y="-30%" width="170%" height="180%">
      <feDropShadow dx="0" dy="9" stdDeviation="7" flood-color="#15320b" flood-opacity=".18"/>
    </filter>
  </defs>
  <rect x="10" y="10" width="108" height="108" rx="32" fill="url(#bg)"/>
  <circle cx="41" cy="37" r="18" fill="#fff" opacity=".72"/>
  <g filter="url(#shadow)"><path d="M62 96C63 72 64 52 68 31" stroke="#2d7a2f" stroke-width="4" fill="none" stroke-linecap="round"/><path d="M62 84c-9-4-15-8-19-15M62 84c10-4 17-10 22-17" stroke="url(#main)" stroke-width="2.6" fill="none" stroke-linecap="round"/><path d="M63 76c-9-4-15-8-19-15M63 76c10-4 17-10 22-17" stroke="url(#main)" stroke-width="2.6" fill="none" stroke-linecap="round"/><path d="M64 68c-9-4-15-8-19-15M64 68c10-4 17-10 22-17" stroke="url(#main)" stroke-width="2.6" fill="none" stroke-linecap="round"/><path d="M65 60c-9-4-15-8-19-15M65 60c10-4 17-10 22-17" stroke="url(#main)" stroke-width="2.6" fill="none" stroke-linecap="round"/><path d="M66 52c-9-4-15-8-19-15M66 52c10-4 17-10 22-17" stroke="url(#main)" stroke-width="2.6" fill="none" stroke-linecap="round"/><path d="M67 44c-9-4-15-8-19-15M67 44c10-4 17-10 22-17" stroke="url(#main)" stroke-width="2.6" fill="none" stroke-linecap="round"/><path d="M68 36c-9-4-15-8-19-15M68 36c10-4 17-10 22-17" stroke="url(#main)" stroke-width="2.6" fill="none" stroke-linecap="round"/></g>
</svg>
