<svg xmlns="http://www.w3.org/2000/svg" width="128" height="128" viewBox="0 0 128 128" role="img" aria-label="eggplant">
  <defs>
    <radialGradient id="bg" cx="30%" cy="22%" r="78%">
      <stop offset="0" stop-color="#fffefa"/>
      <stop offset=".42" stop-color="#e8f4d8"/>
      <stop offset="1" stop-color="#f2ece1"/>
    </radialGradient>
    <linearGradient id="main" x1="25%" y1="15%" x2="78%" y2="88%">
      <stop offset="0" stop-color="#6f3aa6"/>
      <stop offset="1" stop-color="#3f206e"/>
    </linearGradient>
    <filter id="shadow" x="-30%" y="-30%" width="170%" height="180%">
      <feDropShadow dx="0" dy="9" stdDeviation="7" flood-color="#15320b" flood-opacity=".18"/>
    </filter>
  </defs>
  <rect x="10" y="10" width="108" height="108" rx="32" fill="url(#bg)"/>
  <circle cx="41" cy="37" r="18" fill="#fff" opacity=".72"/>
  <g filter="url(#shadow)">
    <ellipse cx="64" cy="70" rx="25" ry="35" transform="rotate(-24 64 70)" fill="url(#main)"/>
    <path d="M51 48c12-11 30-7 38 7" fill="none" stroke="#fff" stroke-width="5" opacity=".45" stroke-linecap="round"/>
    <path d="M54 39c8 4 16 4 24 0" fill="none" stroke="#4d8f37" stroke-width="8" stroke-linecap="round"/>
    <path d="M0-18C15-14 22-2 15 11 3 12-12 5-15-9-11-16-5-18 0-18Z" transform="translate(60 42) rotate(-35) scale(0.5)" fill="#5a9a3b"/><path d="M59 29C63 39 63 48 59 54" fill="none" stroke="#e8f8d1" stroke-width="2" stroke-linecap="round" opacity=".74"/><path d="M0-18C15-14 22-2 15 11 3 12-12 5-15-9-11-16-5-18 0-18Z" transform="translate(74 42) rotate(35) scale(0.5)" fill="#5a9a3b"/><path d="M73 29C77 39 77 48 73 54" fill="none" stroke="#e8f8d1" stroke-width="2" stroke-linecap="round" opacity=".74"/></g>
</svg>
