<svg xmlns="http://www.w3.org/2000/svg" width="128" height="128" viewBox="0 0 128 128" role="img" aria-label="fig">
  <defs>
    <radialGradient id="bg" cx="30%" cy="22%" r="78%">
      <stop offset="0" stop-color="#fffefa"/>
      <stop offset=".42" stop-color="#e8f4d8"/>
      <stop offset="1" stop-color="#f2ece1"/>
    </radialGradient>
    <linearGradient id="main" x1="25%" y1="15%" x2="78%" y2="88%">
      <stop offset="0" stop-color="#7b4d92"/>
      <stop offset="1" stop-color="#456b36"/>
    </linearGradient>
    <filter id="shadow" x="-30%" y="-30%" width="170%" height="180%">
      <feDropShadow dx="0" dy="9" stdDeviation="7" flood-color="#15320b" flood-opacity=".18"/>
    </filter>
  </defs>
  <rect x="10" y="10" width="108" height="108" rx="32" fill="url(#bg)"/>
  <circle cx="41" cy="37" r="18" fill="#fff" opacity=".72"/>
  <g filter="url(#shadow)">
    <path d="M66 36c20 17 30 42 14 58-15 15-45 13-52-9-6-19 8-41 38-49z" fill="url(#main)"/>
    <path d="M64 52c13 11 17 28 8 39-10 10-28 4-30-10-2-11 5-23 22-29z" fill="#d8b0c9" opacity=".86"/>
    <path d="M53 61c7-6 17-7 25-2" stroke="#fff" stroke-width="3" fill="none" opacity=".42" stroke-linecap="round"/></g>
</svg>
