<svg xmlns="http://www.w3.org/2000/svg" width="128" height="128" viewBox="0 0 128 128" role="img" aria-label="kohlrabi">
  <defs>
    <radialGradient id="bg" cx="30%" cy="22%" r="78%">
      <stop offset="0" stop-color="#fffefa"/>
      <stop offset=".42" stop-color="#e8f4d8"/>
      <stop offset="1" stop-color="#f2ece1"/>
    </radialGradient>
    <linearGradient id="main" x1="25%" y1="15%" x2="78%" y2="88%">
      <stop offset="0" stop-color="#b7d27b"/>
      <stop offset="1" stop-color="#6b9847"/>
    </linearGradient>
    <filter id="shadow" x="-30%" y="-30%" width="170%" height="180%">
      <feDropShadow dx="0" dy="9" stdDeviation="7" flood-color="#15320b" flood-opacity=".18"/>
    </filter>
  </defs>
  <rect x="10" y="10" width="108" height="108" rx="32" fill="url(#bg)"/>
  <circle cx="41" cy="37" r="18" fill="#fff" opacity=".72"/>
  <g filter="url(#shadow)">
    <path d="M0-18C15-14 22-2 15 11 3 12-12 5-15-9-11-16-5-18 0-18Z" transform="translate(54 38) rotate(-35) scale(0.42)" fill="#5aa84a"/><path d="M53 25C57 35 57 44 53 50" fill="none" stroke="#e8f8d1" stroke-width="2" stroke-linecap="round" opacity=".74"/><path d="M0-18C15-14 22-2 15 11 3 12-12 5-15-9-11-16-5-18 0-18Z" transform="translate(68 34) rotate(8) scale(0.45)" fill="#6db251"/><path d="M67 21C71 31 71 40 67 46" fill="none" stroke="#e8f8d1" stroke-width="2" stroke-linecap="round" opacity=".74"/><path d="M0-18C15-14 22-2 15 11 3 12-12 5-15-9-11-16-5-18 0-18Z" transform="translate(82 40) rotate(42) scale(0.38)" fill="#5aa84a"/><path d="M81 27C85 37 85 46 81 52" fill="none" stroke="#e8f8d1" stroke-width="2" stroke-linecap="round" opacity=".74"/>
    <ellipse cx="64" cy="70" rx="28" ry="31" fill="url(#main)"/>
    <path d="M64 98c-3 10-7 15-12 17" fill="none" stroke="#7b4f34" stroke-width="3" stroke-linecap="round" opacity=".65"/>
    <path d="M49 57c9-9 24-11 34-1" fill="none" stroke="#fff" stroke-width="4" opacity=".48" stroke-linecap="round"/></g>
</svg>
