<svg xmlns="http://www.w3.org/2000/svg" width="128" height="128" viewBox="0 0 128 128" role="img" aria-label="lemon">
  <defs>
    <radialGradient id="bg" cx="30%" cy="22%" r="78%">
      <stop offset="0" stop-color="#fffefa"/>
      <stop offset=".42" stop-color="#e8f4d8"/>
      <stop offset="1" stop-color="#f2ece1"/>
    </radialGradient>
    <linearGradient id="main" x1="25%" y1="15%" x2="78%" y2="88%">
      <stop offset="0" stop-color="#efd957"/>
      <stop offset="1" stop-color="#c7ad2d"/>
    </linearGradient>
    <filter id="shadow" x="-30%" y="-30%" width="170%" height="180%">
      <feDropShadow dx="0" dy="9" stdDeviation="7" flood-color="#15320b" flood-opacity=".18"/>
    </filter>
  </defs>
  <rect x="10" y="10" width="108" height="108" rx="32" fill="url(#bg)"/>
  <circle cx="41" cy="37" r="18" fill="#fff" opacity=".72"/>
  <g filter="url(#shadow)">
    <ellipse cx="65" cy="67" rx="31" ry="25" transform="rotate(-18 65 67)" fill="url(#main)"/>
    <path d="M43 58c11-14 31-17 44-6" fill="none" stroke="#fff" stroke-width="5" stroke-linecap="round" opacity=".52"/>
    <path d="M0-18C15-14 22-2 15 11 3 12-12 5-15-9-11-16-5-18 0-18Z" transform="translate(78 43) rotate(42) scale(0.52)" fill="#5aa84a"/><path d="M77 30C81 40 81 49 77 55" fill="none" stroke="#e8f8d1" stroke-width="2" stroke-linecap="round" opacity=".74"/></g>
</svg>
