<svg xmlns="http://www.w3.org/2000/svg" width="128" height="128" viewBox="0 0 128 128" role="img" aria-label="mandarin">
  <defs>
    <radialGradient id="bg" cx="30%" cy="22%" r="78%">
      <stop offset="0" stop-color="#fffefa"/>
      <stop offset=".42" stop-color="#e8f4d8"/>
      <stop offset="1" stop-color="#f2ece1"/>
    </radialGradient>
    <linearGradient id="main" x1="25%" y1="15%" x2="78%" y2="88%">
      <stop offset="0" stop-color="#f4a331"/>
      <stop offset="1" stop-color="#ca6a1d"/>
    </linearGradient>
    <filter id="shadow" x="-30%" y="-30%" width="170%" height="180%">
      <feDropShadow dx="0" dy="9" stdDeviation="7" flood-color="#15320b" flood-opacity=".18"/>
    </filter>
  </defs>
  <rect x="10" y="10" width="108" height="108" rx="32" fill="url(#bg)"/>
  <circle cx="41" cy="37" r="18" fill="#fff" opacity=".72"/>
  <g filter="url(#shadow)">
    <circle cx="64" cy="67" r="30" fill="url(#main)"/>
    <path d="M52 45c7-8 17-8 24 0" fill="none" stroke="rgba(255,255,255,.58)" stroke-width="5" stroke-linecap="round"/>
    <path d="M58 38c5 5 11 5 16 0" fill="none" stroke="rgba(0,0,0,.13)" stroke-width="2.5" stroke-linecap="round"/>
    <path d="M65 40c-1-6 2-10 6-14" fill="none" stroke="#5d4b27" stroke-width="3.5" stroke-linecap="round"/>
    <path d="M0-18C15-14 22-2 15 11 3 12-12 5-15-9-11-16-5-18 0-18Z" transform="translate(77 35) rotate(44) scale(0.58)" fill="#5aa84a"/><path d="M76 22C80 32 80 41 76 47" fill="none" stroke="#e8f8d1" stroke-width="2" stroke-linecap="round" opacity=".74"/></g>
</svg>
