<svg xmlns="http://www.w3.org/2000/svg" width="128" height="128" viewBox="0 0 128 128" role="img" aria-label="melon">
  <defs>
    <radialGradient id="bg" cx="30%" cy="22%" r="78%">
      <stop offset="0" stop-color="#fffefa"/>
      <stop offset=".42" stop-color="#e8f4d8"/>
      <stop offset="1" stop-color="#f2ece1"/>
    </radialGradient>
    <linearGradient id="main" x1="25%" y1="15%" x2="78%" y2="88%">
      <stop offset="0" stop-color="#d7bd63"/>
      <stop offset="1" stop-color="#8aa33d"/>
    </linearGradient>
    <filter id="shadow" x="-30%" y="-30%" width="170%" height="180%">
      <feDropShadow dx="0" dy="9" stdDeviation="7" flood-color="#15320b" flood-opacity=".18"/>
    </filter>
  </defs>
  <rect x="10" y="10" width="108" height="108" rx="32" fill="url(#bg)"/>
  <circle cx="41" cy="37" r="18" fill="#fff" opacity=".72"/>
  <g filter="url(#shadow)">
    <ellipse cx="64" cy="68" rx="34" ry="29" fill="url(#main)"/>
    <path d="M38 68h56M50 46c-8 14-8 35 1 50M65 40c-8 17-8 40 0 58M80 46c9 15 8 35-1 50" stroke="#f2e9b0" stroke-width="3" fill="none" opacity=".72" stroke-linecap="round"/><path d="M0-18C15-14 22-2 15 11 3 12-12 5-15-9-11-16-5-18 0-18Z" transform="translate(83 43) rotate(38) scale(0.5)" fill="#5aa84a"/><path d="M82 30C86 40 86 49 82 55" fill="none" stroke="#e8f8d1" stroke-width="2" stroke-linecap="round" opacity=".74"/></g>
</svg>
