<svg xmlns="http://www.w3.org/2000/svg" width="128" height="128" viewBox="0 0 128 128" role="img" aria-label="olive">
  <defs>
    <radialGradient id="bg" cx="30%" cy="22%" r="78%">
      <stop offset="0" stop-color="#fffefa"/>
      <stop offset=".42" stop-color="#e8f4d8"/>
      <stop offset="1" stop-color="#f2ece1"/>
    </radialGradient>
    <linearGradient id="main" x1="25%" y1="15%" x2="78%" y2="88%">
      <stop offset="0" stop-color="#6c7f34"/>
      <stop offset="1" stop-color="#3d5124"/>
    </linearGradient>
    <filter id="shadow" x="-30%" y="-30%" width="170%" height="180%">
      <feDropShadow dx="0" dy="9" stdDeviation="7" flood-color="#15320b" flood-opacity=".18"/>
    </filter>
  </defs>
  <rect x="10" y="10" width="108" height="108" rx="32" fill="url(#bg)"/>
  <circle cx="41" cy="37" r="18" fill="#fff" opacity=".72"/>
  <g filter="url(#shadow)">
    <circle cx="53" cy="66" r="18" fill="url(#main)"/><circle cx="72" cy="60" r="17" fill="#6c7f34"/><circle cx="73" cy="80" r="16" fill="#3d5124"/><circle cx="53" cy="86" r="14" fill="#6c7f34"/>
    <path d="M64 45c-1-7 4-11 10-15" stroke="#536d2e" stroke-width="4" fill="none" stroke-linecap="round"/><path d="M0-18C15-14 22-2 15 11 3 12-12 5-15-9-11-16-5-18 0-18Z" transform="translate(79 38) rotate(40) scale(0.46)" fill="#5aa84a"/><path d="M78 25C82 35 82 44 78 50" fill="none" stroke="#e8f8d1" stroke-width="2" stroke-linecap="round" opacity=".74"/>
    <circle cx="47" cy="59" r="4" fill="#fff" opacity=".5"/></g>
</svg>
