<svg xmlns="http://www.w3.org/2000/svg" width="128" height="128" viewBox="0 0 128 128" role="img" aria-label="pear">
  <defs>
    <radialGradient id="bg" cx="30%" cy="22%" r="78%">
      <stop offset="0" stop-color="#fffefa"/>
      <stop offset=".42" stop-color="#e8f4d8"/>
      <stop offset="1" stop-color="#f2ece1"/>
    </radialGradient>
    <linearGradient id="main" x1="25%" y1="15%" x2="78%" y2="88%">
      <stop offset="0" stop-color="#d0c655"/>
      <stop offset="1" stop-color="#8ea243"/>
    </linearGradient>
    <filter id="shadow" x="-30%" y="-30%" width="170%" height="180%">
      <feDropShadow dx="0" dy="9" stdDeviation="7" flood-color="#15320b" flood-opacity=".18"/>
    </filter>
  </defs>
  <rect x="10" y="10" width="108" height="108" rx="32" fill="url(#bg)"/>
  <circle cx="41" cy="37" r="18" fill="#fff" opacity=".72"/>
  <g filter="url(#shadow)">
    <path d="M62 35c13 2 18 18 10 28 17 6 24 34 3 45-20 10-46-1-45-24 0-14 9-22 17-26-5-13 2-25 15-23z" fill="url(#main)"/>
    <path d="M62 35c-1-7 3-12 8-15" stroke="#6b4d25" stroke-width="4" fill="none" stroke-linecap="round"/><path d="M0-18C15-14 22-2 15 11 3 12-12 5-15-9-11-16-5-18 0-18Z" transform="translate(75 33) rotate(42) scale(0.48)" fill="#5aa84a"/><path d="M74 20C78 30 78 39 74 45" fill="none" stroke="#e8f8d1" stroke-width="2" stroke-linecap="round" opacity=".74"/>
    <path d="M45 66c10-12 25-14 37-5" stroke="#fff" stroke-width="4" fill="none" opacity=".45" stroke-linecap="round"/></g>
</svg>
