<svg xmlns="http://www.w3.org/2000/svg" width="128" height="128" viewBox="0 0 128 128" role="img" aria-label="pepper">
  <defs>
    <radialGradient id="bg" cx="30%" cy="22%" r="78%">
      <stop offset="0" stop-color="#fffefa"/>
      <stop offset=".42" stop-color="#e8f4d8"/>
      <stop offset="1" stop-color="#f2ece1"/>
    </radialGradient>
    <linearGradient id="main" x1="25%" y1="15%" x2="78%" y2="88%">
      <stop offset="0" stop-color="#e94135"/>
      <stop offset="1" stop-color="#c71f22"/>
    </linearGradient>
    <filter id="shadow" x="-30%" y="-30%" width="170%" height="180%">
      <feDropShadow dx="0" dy="9" stdDeviation="7" flood-color="#15320b" flood-opacity=".18"/>
    </filter>
  </defs>
  <rect x="10" y="10" width="108" height="108" rx="32" fill="url(#bg)"/>
  <circle cx="41" cy="37" r="18" fill="#fff" opacity=".72"/>
  <g filter="url(#shadow)">
    <path d="M62 43c6-10 20-5 22 6 12 3 15 19 8 31-7 13-28 17-35 6-9 9-29 3-32-10-5-17 6-32 20-29 4-10 14-12 17-4z" fill="url(#main)"/>
    <path d="M60 42c-1-8 3-13 10-16" fill="none" stroke="#356b2e" stroke-width="5" stroke-linecap="round"/>
    <path d="M48 50c-9 12-9 29 1 39" fill="none" stroke="#fff" stroke-width="4" opacity=".45" stroke-linecap="round"/>
    <path d="M70 51c8 13 7 27-2 39" fill="none" stroke="rgba(0,0,0,.14)" stroke-width="3" stroke-linecap="round"/></g>
</svg>
