<svg xmlns="http://www.w3.org/2000/svg" width="128" height="128" viewBox="0 0 128 128" role="img" aria-label="pineapple">
  <defs>
    <radialGradient id="bg" cx="30%" cy="22%" r="78%">
      <stop offset="0" stop-color="#fffefa"/>
      <stop offset=".42" stop-color="#e8f4d8"/>
      <stop offset="1" stop-color="#f2ece1"/>
    </radialGradient>
    <linearGradient id="main" x1="25%" y1="15%" x2="78%" y2="88%">
      <stop offset="0" stop-color="#d79b2d"/>
      <stop offset="1" stop-color="#4a8d3b"/>
    </linearGradient>
    <filter id="shadow" x="-30%" y="-30%" width="170%" height="180%">
      <feDropShadow dx="0" dy="9" stdDeviation="7" flood-color="#15320b" flood-opacity=".18"/>
    </filter>
  </defs>
  <rect x="10" y="10" width="108" height="108" rx="32" fill="url(#bg)"/>
  <circle cx="41" cy="37" r="18" fill="#fff" opacity=".72"/>
  <g filter="url(#shadow)">
    <path d="M0-18C15-14 22-2 15 11 3 12-12 5-15-9-11-16-5-18 0-18Z" transform="translate(58 42) rotate(-28) scale(0.5)" fill="#5a9c3e"/><path d="M57 29C61 39 61 48 57 54" fill="none" stroke="#e8f8d1" stroke-width="2" stroke-linecap="round" opacity=".74"/><path d="M0-18C15-14 22-2 15 11 3 12-12 5-15-9-11-16-5-18 0-18Z" transform="translate(67 35) rotate(0) scale(0.56)" fill="#5aaa42"/><path d="M66 22C70 32 70 41 66 47" fill="none" stroke="#e8f8d1" stroke-width="2" stroke-linecap="round" opacity=".74"/><path d="M0-18C15-14 22-2 15 11 3 12-12 5-15-9-11-16-5-18 0-18Z" transform="translate(76 42) rotate(28) scale(0.5)" fill="#5a9c3e"/><path d="M75 29C79 39 79 48 75 54" fill="none" stroke="#e8f8d1" stroke-width="2" stroke-linecap="round" opacity=".74"/>
    <path d="M48 51c12-7 34-7 46 0 8 22 1 47-23 55-24-8-31-33-23-55z" fill="#d79b2d"/>
    <path d="M51 61h41M49 76h44M55 91h32M55 52l35 39M88 52 53 91" stroke="#f3cf65" stroke-width="2.6" opacity=".72"/></g>
</svg>
