<svg xmlns="http://www.w3.org/2000/svg" width="128" height="128" viewBox="0 0 128 128" role="img" aria-label="watermelon">
  <defs>
    <radialGradient id="bg" cx="30%" cy="22%" r="78%">
      <stop offset="0" stop-color="#fffefa"/>
      <stop offset=".42" stop-color="#e8f4d8"/>
      <stop offset="1" stop-color="#f2ece1"/>
    </radialGradient>
    <linearGradient id="main" x1="25%" y1="15%" x2="78%" y2="88%">
      <stop offset="0" stop-color="#e94b55"/>
      <stop offset="1" stop-color="#2e8e43"/>
    </linearGradient>
    <filter id="shadow" x="-30%" y="-30%" width="170%" height="180%">
      <feDropShadow dx="0" dy="9" stdDeviation="7" flood-color="#15320b" flood-opacity=".18"/>
    </filter>
  </defs>
  <rect x="10" y="10" width="108" height="108" rx="32" fill="url(#bg)"/>
  <circle cx="41" cy="37" r="18" fill="#fff" opacity=".72"/>
  <g filter="url(#shadow)">
    <path d="M29 78c13-34 56-46 88-18-19 33-61 48-88 18z" fill="#2e8e43"/>
    <path d="M38 75c14-24 46-34 72-16-17 24-50 36-72 16z" fill="#f4f0d6"/>
    <path d="M45 72c15-19 39-26 60-14-15 18-39 27-60 14z" fill="#e94b55"/>
    <ellipse cx="64" cy="66" rx="2" ry="4" fill="#2c1d1d"/><ellipse cx="77" cy="62" rx="2" ry="4" fill="#2c1d1d"/><ellipse cx="89" cy="58" rx="2" ry="4" fill="#2c1d1d"/></g>
</svg>
